# Exported from Wings 3D 1.2
mtllib gas_station.mtl
o cube1
#128 vertices, 106 faces
v -1.00000000 -0.10000000 3.00000000
v -1.00000000 0.10000000 3.00000000
v 1.00000000 0.10000000 3.00000000
v 1.00000000 -0.10000000 3.00000000
v -1.00000000 -0.10000000 -3.00000000
v -1.00000000 0.10000000 -3.00000000
v 1.00000000 0.10000000 -3.00000000
v 1.00000000 -0.10000000 -3.00000000
v 3.00000000 0.10000000 1.00000000
v 3.00000000 -0.10000000 1.00000000
v 3.00000000 -0.10000000 -1.00000000
v 3.00000000 0.10000000 -1.00000000
v -3.00000000 -0.10000000 1.00000000
v -3.00000000 0.10000000 1.00000000
v -3.00000000 0.10000000 -1.00000000
v -3.00000000 -0.10000000 -1.00000000
v -1.00000000 -0.10000000 1.00000000
v -1.00000000 -0.10000000 -1.00000000
v -1.00000000 0.10000000 1.00000000
v -1.00000000 0.10000000 -1.00000000
v 1.00000000 0.10000000 1.00000000
v 1.00000000 0.10000000 -1.00000000
v 1.00000000 -0.10000000 1.00000000
v 1.00000000 -0.10000000 -1.00000000
v -0.50333333 0.10000000 -3.00000000
v 0.50333333 0.10000000 -3.00000000
v -0.90333333 0.10000000 -1.00000000
v 0.90333333 0.10000000 -1.00000000
v 0.50333333 0.10000000 -2.21851839
v -0.50333333 0.10000000 -2.21851839
v -0.51117673 0.16096166 -1.61454674
v -0.51117673 0.66696166 -1.61454674
v 0.50082327 0.66696166 -1.61454674
v 0.50082327 0.16096166 -1.61454674
v -0.51117673 0.16096166 -2.12054674
v -0.51117673 0.66696166 -2.12054674
v 0.50082327 0.66696166 -2.12054674
v 0.50082327 0.16096166 -2.12054674
v -0.51117673 0.64166165 -1.61454674
v 0.50082327 0.64166165 -1.61454674
v -0.51117673 0.62268665 -0.98204674
v 0.50082327 0.62268665 -0.98204674
v 0.50082327 0.63533666 -0.98204674
v -0.51117673 0.63533666 -0.98204674
v 0.50082327 0.16096166 -1.00734672
v -0.51117673 0.16096166 -1.00734672
v -0.51117673 0.16096166 -1.08856304
v 0.50082327 0.16096166 -1.08856304
v 0.20842327 0.16096166 -1.00734672
v 9.6023274e-2 0.16096166 -1.00734672
v -0.10637673 0.16096166 -1.00734672
v -0.21877673 0.16096166 -1.00734672
v -0.21877673 0.16096166 -1.08856304
v -0.10637673 0.16096166 -1.08856304
v 9.6023274e-2 0.16096166 -1.08856304
v 0.20842327 0.16096166 -1.08856304
v -0.21877673 0.30096166 -1.08856304
v -0.21877673 0.30096166 -1.00734672
v -0.10637673 0.30096166 -1.00734672
v -0.10637673 0.30096166 -1.08856304
v 9.6023274e-2 0.30096166 -1.08856304
v 9.6023274e-2 0.30096166 -1.00734672
v 0.20842327 0.30096166 -1.00734672
v 0.20842327 0.30096166 -1.08856304
v 0.90333333 0.10000000 -1.60925920
v -0.90333333 0.10000000 -1.60925920
v 2.90000000 0.10000000 -1.00000000
v 2.90000000 0.10000000 1.00000000
v -2.90000000 0.10000000 -1.00000000
v -2.90000000 0.10000000 1.00000000
v 1.00000000 0.10000000 2.90000000
v -1.00000000 0.10000000 2.90000000
v 3.00000000 0.10000000 0.90833333
v 3.00000000 0.10000000 -0.90833333
v 2.90000000 0.10000000 0.90833333
v 2.90000000 0.10000000 -0.90833333
v -0.90833333 0.10000000 3.00000000
v 0.90833333 0.10000000 3.00000000
v -3.00000000 0.10000000 -0.90833333
v -3.00000000 0.10000000 0.90833333
v -2.90000000 0.10000000 0.90833333
v -2.90000000 0.10000000 -0.90833333
v 0.90833333 0.10000000 2.90000000
v -0.90833333 0.10000000 2.90000000
v -0.90833333 1.10000000 3.00000000
v -0.90833333 1.10000000 2.90000000
v -1.00000000 1.10000000 2.90000000
v -1.00000000 1.10000000 3.00000000
v -3.00000000 1.09897876 -0.90833333
v -2.90000000 1.09897876 -0.90833333
v 2.90000000 1.10000000 -0.90833333
v 3.00000000 1.10000000 -0.90833333
v 3.00000000 1.10000000 -1.00000000
v 2.90000000 1.10000000 -1.00000000
v 0.90833333 1.10000000 2.90000000
v 0.90833333 1.10000000 3.00000000
v 1.00000000 1.10000000 3.00000000
v 1.00000000 1.10000000 2.90000000
v -2.90000000 1.09897876 0.90833333
v -3.00000000 1.09897876 0.90833333
v 3.00000000 1.10000000 0.90833333
v 2.90000000 1.10000000 0.90833333
v 2.90000000 1.10000000 1.00000000
v 3.00000000 1.10000000 1.00000000
v -1.00000000 1.45000000 2.90000000
v -1.00000000 1.45000000 3.00000000
v -2.90000000 1.45000000 -1.00000000
v -3.00000000 1.45000000 -1.00000000
v 3.00000000 1.45000000 -1.00000000
v 2.90000000 1.45000000 -1.00000000
v 1.00000000 1.45000000 3.00000000
v 1.00000000 1.45000000 2.90000000
v -3.00000000 1.45000000 1.00000000
v -2.90000000 1.45000000 1.00000000
v 2.90000000 1.45000000 1.00000000
v 3.00000000 1.45000000 1.00000000
v -2.90000000 1.09897876 1.00000000
v -2.90000000 1.09897876 -1.00000000
v -3.00000000 1.09897876 1.00000000
v -3.00000000 1.09897876 -1.00000000
v 1.00000000 0.10000000 -1.66666667
v 1.02889577 0.10000000 -1.66666667
v 1.02889577 0.10000000 -1.69046036
v 1.00000000 0.10000000 -1.69046036
v 1.02889577 1.00000000 -1.69046036
v 1.00000000 1.00000000 -1.69046036
v 1.00000000 1.00000000 -1.66666667
v 1.02889577 1.00000000 -1.66666667
vt -4.4408921e-16 0.36112120
vt -4.4408921e-16 0.63887880
vt 0.0000000e+0 0.0000000e+0
vt 0.0000000e+0 5.5511151e-17
vt 0.0000000e+0 2.2204460e-16
vt 0.0000000e+0 3.8857806e-16
vt 0.0000000e+0 4.7232715e-16
vt 0.0000000e+0 6.1062266e-16
vt 0.0000000e+0 8.4932061e-16
vt 0.0000000e+0 8.8817842e-16
vt 0.0000000e+0 7.0710679e-2
vt 0.0000000e+0 7.0710679e-2
vt 0.0000000e+0 0.10000000
vt 0.0000000e+0 0.17500000
vt 0.0000000e+0 0.17500000
vt 0.0000000e+0 0.17551062
vt 0.0000000e+0 0.17551062
vt 0.0000000e+0 0.29936679
vt 0.0000000e+0 0.35051062
vt 0.0000000e+0 0.36112120
vt 0.0000000e+0 0.46361975
vt 0.0000000e+0 0.48300662
vt 0.0000000e+0 0.50000000
vt 0.0000000e+0 0.50000000
vt 0.0000000e+0 0.52500001
vt 0.0000000e+0 0.52551062
vt 0.0000000e+0 0.59577936
vt 0.0000000e+0 0.63887880
vt 0.0000000e+0 1.00000000
vt 0.0000000e+0 1.00000000
vt 0.0000000e+0 1.00000000
vt 0.0000000e+0 1.00000000
vt 0.0000000e+0 1.00000000
vt 2.0816682e-17 0.48000000
vt 2.0816682e-17 0.52000000
vt 5.5511151e-17 0.48000000
vt 5.5511151e-17 0.52000000
vt 5.5511151e-17 0.66629478
vt 5.5511151e-17 0.91171587
vt 9.7144515e-17 0.48001633
vt 9.7144515e-17 0.51998367
vt 1.1102230e-16 0.0000000e+0
vt 1.1102230e-16 2.7755576e-16
vt 1.1102230e-16 4.5833333e-2
vt 1.1102230e-16 7.0710679e-2
vt 1.1102230e-16 0.10000000
vt 1.1102230e-16 0.35051062
vt 1.1102230e-16 0.47499999
vt 1.1102230e-16 0.50000000
vt 1.6653345e-16 0.0000000e+0
vt 2.2204460e-16 5.5511151e-17
vt 2.2204460e-16 1.1102230e-15
vt 2.2204460e-16 0.10000000
vt 2.2204460e-16 0.10000000
vt 2.2204460e-16 0.17551062
vt 2.2204460e-16 0.50000000
vt 2.2204460e-16 1.00000000
vt 2.4997354e-16 0.55586379
vt 2.4997354e-16 1.00000000
vt 2.7755576e-16 0.33079352
vt 3.3306691e-16 1.1102230e-16
vt 3.3306691e-16 0.50000000
vt 5.5511151e-16 1.8893086e-16
vt 5.5511151e-16 0.95416667
vt 6.6613381e-16 1.00000000
vt 6.6613381e-16 1.00000000
vt 8.8817842e-16 8.8284129e-2
vt 8.8817842e-16 0.70063321
vt 1.1102230e-15 0.0000000e+0
vt 1.1102230e-15 1.00000000
vt 1.9984014e-15 1.00000000
vt 2.0053403e-15 1.00000000
vt 1.7362611e-11 3.2645886e-11
vt 2.6254297e-4 0.56787824
vt 2.7500415e-3 0.66574999
vt 2.7500415e-3 0.33425001
vt 2.6437442e-2 0.0000000e+0
vt 2.6437442e-2 1.1102230e-16
vt 2.6437442e-2 1.00000000
vt 2.6437442e-2 1.00000000
vt 4.5833333e-2 0.0000000e+0
vt 4.5833333e-2 0.10000000
vt 4.5833333e-2 0.17551062
vt 4.5833333e-2 1.1102230e-16
vt 4.5833333e-2 0.10000000
vt 4.5833333e-2 1.1102230e-16
vt 4.5833333e-2 0.10000000
vt 4.5833333e-2 0.35051062
vt 4.8333333e-2 0.30462960
vt 4.8333333e-2 0.0000000e+0
vt 5.0000000e-2 1.1102230e-16
vt 5.0000000e-2 4.5833333e-2
vt 5.0000000e-2 0.95416667
vt 5.0000000e-2 1.00000000
vt 5.8543859e-2 0.0000000e+0
vt 5.8543859e-2 1.6653345e-16
vt 5.8543859e-2 1.00000000
vt 5.8543859e-2 1.00000000
vt 9.1666667e-2 6.6058270e-16
vt 9.1666667e-2 1.00000000
vt 9.1666667e-2 1.00000000
vt 9.1666667e-2 1.8873791e-16
vt 9.1666667e-2 9.4368957e-17
vt 9.1666667e-2 1.00000000
vt 9.1666667e-2 9.4368957e-17
vt 9.1666667e-2 1.00000000
vt 9.1760376e-2 0.0000000e+0
vt 9.1760376e-2 1.00000000
vt 9.1760376e-2 0.0000000e+0
vt 9.1760376e-2 1.00000000
vt 1.0000000e-1 0.52000000
vt 1.0000000e-1 0.52000000
vt 1.0000000e-1 0.48000000
vt 0.10000000 0.48000000
vt 0.10032653 0.51998367
vt 0.10032653 0.48001633
vt 0.12024857 1.00000000
vt 0.12024857 0.0000000e+0
vt 0.12024857 1.00000000
vt 0.12024857 1.00000000
vt 0.12024857 0.0000000e+0
vt 0.12024857 0.0000000e+0
vt 0.15270625 0.38025944
vt 0.19166667 2.8310687e-16
vt 0.19166667 0.0000000e+0
vt 0.19166667 1.00000000
vt 0.19166667 1.00000000
vt 0.19166667 1.8873791e-16
vt 0.19166667 1.00000000
vt 0.19166667 9.4368957e-17
vt 0.19166667 1.00000000
vt 0.19186261 1.00000000
vt 0.19186261 0.0000000e+0
vt 0.19186261 0.0000000e+0
vt 0.19186261 1.00000000
vt 0.21706085 0.51699338
vt 0.21854287 0.33483915
vt 0.21854287 0.66920648
vt 0.21854287 0.37956261
vt 0.24833333 1.00000000
vt 0.24833333 0.60925920
vt 0.24833333 0.10000000
vt 0.27511522 1.1102230e-16
vt 0.27511522 2.2204460e-16
vt 0.27511522 1.00000000
vt 0.27511522 1.00000000
vt 0.27511522 1.00000000
vt 0.28007544 0.56184147
vt 0.28267976 0.61247098
vt 0.28273333 1.3322676e-15
vt 0.28273333 0.99948938
vt 0.28273333 1.00000000
vt 0.28273333 0.99948938
vt 0.28273333 1.00000000
vt 0.28273333 5.1062208e-4
vt 0.28273333 1.00000000
vt 0.28273333 4.9960036e-16
vt 0.28273333 7.7715612e-16
vt 0.28273333 0.0000000e+0
vt 0.28273333 5.1062208e-4
vt 0.28273333 1.00000000
vt 0.28333333 0.0000000e+0
vt 0.28333333 0.0000000e+0
vt 0.28333333 1.00000000
vt 0.28333333 1.00000000
vt 0.28333333 1.8873791e-16
vt 0.28333333 1.00000000
vt 0.28333333 1.8873791e-16
vt 0.28333333 1.00000000
vt 0.28362298 0.0000000e+0
vt 0.28362298 1.00000000
vt 0.28362298 1.8893086e-16
vt 0.28362298 1.00000000
vt 0.33323126 0.35462501
vt 0.33425001 0.66574999
vt 0.33425001 0.99724996
vt 0.33425001 2.7500415e-3
vt 0.33425001 0.33425001
vt 0.34185038 0.65643173
vt 0.34317462 0.65678555
vt 0.34356827 0.34185038
vt 0.34980626 0.35462501
vt 0.35484001 0.46148677
vt 0.35484001 0.46543058
vt 0.35484001 0.68248675
vt 0.35484001 0.35098678
vt 0.35962949 0.46148677
vt 0.35962949 0.46543058
vt 0.37955902 0.37956261
vt 0.38273333 1.1102230e-15
vt 0.38273333 0.99948938
vt 0.38273333 1.00000000
vt 0.38273333 0.99948938
vt 0.38273333 1.00000000
vt 0.38273333 4.9960036e-16
vt 0.38273333 8.3266727e-16
vt 0.38273333 1.00000000
vt 0.38273333 5.1062208e-4
vt 0.38273333 0.0000000e+0
vt 0.38273333 5.1062208e-4
vt 0.38273333 1.00000000
vt 0.44145442 0.37956261
vt 0.49882879 0.35592985
vt 0.50000000 0.0000000e+0
vt 0.50000000 0.50000000
vt 0.50000000 0.97499999
vt 0.50000000 1.00000000
vt 0.50000000 0.50000000
vt 0.50051521 0.50006062
vt 0.50108264 0.50004815
vt 0.50108264 0.64416721
vt 0.55291019 0.37956261
vt 0.61480559 0.37956261
vt 0.65678531 0.34188996
vt 0.65678555 0.65682538
vt 0.65678555 0.32532503
vt 0.65811004 0.65678531
vt 0.66473124 0.35462501
vt 0.66473124 0.68612498
vt 0.66574999 0.99724996
vt 0.66574999 0.66574999
vt 0.66574999 2.7500415e-3
vt 0.66574999 0.33425001
vt 0.66976499 0.35098678
vt 0.67467497 0.65678555
vt 0.68633998 0.35098678
vt 0.69197911 0.0000000e+0
vt 0.69197911 1.00000000
vt 0.69197911 0.50000000
vt 0.69197911 0.50000000
vt 0.72361390 0.56914956
vt 0.72388073 0.61974056
vt 0.72488478 0.0000000e+0
vt 0.72488478 1.00000000
vt 0.72488478 1.00000000
vt 0.72488478 1.00000000
vt 0.75166667 1.00000000
vt 0.75166667 0.60925920
vt 0.75166667 0.10000000
vt 0.77582174 0.66920648
vt 0.77582174 0.33483915
vt 0.77582174 0.37956261
vt 0.77720845 0.51699338
vt 0.83986994 0.38025944
vt 0.87975143 1.00000000
vt 0.87975143 6.6613381e-16
vt 0.87975143 8.8817842e-16
vt 0.87975143 0.0000000e+0
vt 0.87975143 1.00000000
vt 0.89967347 0.48001633
vt 0.89967347 0.51998367
vt 0.90000000 0.52000000
vt 0.90000000 0.52000000
vt 0.90000000 0.48000000
vt 0.90000000 0.48000000
vt 0.95000000 0.0000000e+0
vt 0.95000000 4.5833333e-2
vt 0.95000000 -1.1102230e-16
vt 0.95000000 4.5833333e-2
vt 0.95000000 1.00000000
vt 0.95000000 1.00000000
vt 0.95000000 0.95416667
vt 0.95000000 0.95416667
vt 0.95166667 0.30462960
vt 0.95166667 3.1495917e-11
vt 0.95416667 0.35051062
vt 0.95416667 0.10000000
vt 0.95416667 0.0000000e+0
vt 0.95416667 1.1102230e-16
vt 0.95416667 0.10000000
vt 0.95416667 0.0000000e+0
vt 0.95416667 0.10000000
vt 0.95416667 0.17551062
vt 0.95416667 0.0000000e+0
vt 0.99724996 0.33425001
vt 0.99724996 0.66574999
vt 0.99995583 0.40417015
vt 1.00000000 1.00000000
vt 1.00000000 0.34523018
vt 1.00000000 0.33333333
vt 1.00000000 3.2645553e-11
vt 1.00000000 0.29936679
vt 1.00000000 0.91171587
vt 1.00000000 4.5833333e-2
vt 1.00000000 4.5833333e-2
vt 1.00000000 4.8333333e-2
vt 1.00000000 0.0000000e+0
vt 1.00000000 0.10000000
vt 1.00000000 0.35051062
vt 1.00000000 0.52551062
vt 1.00000000 0.0000000e+0
vt 1.00000000 3.3306691e-16
vt 1.00000000 3.6082248e-15
vt 1.00000000 0.0000000e+0
vt 1.00000000 1.1102230e-16
vt 1.00000000 7.0710679e-2
vt 1.00000000 0.10000000
vt 1.00000000 0.17500000
vt 1.00000000 0.17551062
vt 1.00000000 0.35051062
vt 1.00000000 0.50000000
vt 1.00000000 0.66629478
vt 1.00000000 0.95416667
vt 1.00000000 1.00000000
vt 1.00000000 2.7755576e-17
vt 1.00000000 0.48001633
vt 1.00000000 0.48300662
vt 1.00000000 0.51998367
vt 1.00000000 0.95166667
vt 1.00000000 0.95416667
vt 1.00000000 1.00000000
vt 1.00000000 1.00000000
vt 1.00000000 0.0000000e+0
vt 1.00000000 8.3266727e-17
vt 1.00000000 5.5511151e-16
vt 1.00000000 8.3266727e-16
vt 1.00000000 1.1796120e-15
vt 1.00000000 7.0710679e-2
vt 1.00000000 8.8284129e-2
vt 1.00000000 0.10000000
vt 1.00000000 0.10000000
vt 1.00000000 0.17500000
vt 1.00000000 0.17551062
vt 1.00000000 0.17551062
vt 1.00000000 0.33079352
vt 1.00000000 0.36112120
vt 1.00000000 0.36112120
vt 1.00000000 0.43190410
vt 1.00000000 0.45904618
vt 1.00000000 0.48000000
vt 1.00000000 0.48000000
vt 1.00000000 0.52000000
vt 1.00000000 0.52000000
vt 1.00000000 0.52500001
vt 1.00000000 0.55586379
vt 1.00000000 0.63887880
vt 1.00000000 0.70063321
vt 1.00000000 1.00000000
vn -0.57735027 -0.57735027 0.57735027
vn -0.70710678 -3.1401849e-16 0.70710678
vn 0.70710678 -3.1401849e-16 0.70710678
vn 0.57735027 -0.57735027 0.57735027
vn -0.25968834 -0.73450956 -0.62694312
vn -0.25968834 0.73450956 -0.62694312
vn 0.25968834 0.73450956 -0.62694312
vn 0.25968834 -0.73450956 -0.62694312
vn 0.70710678 1.3738309e-16 0.70710678
vn 0.57735027 -0.57735027 0.57735027
vn 0.62694312 -0.73450956 -0.25968834
vn 0.80736742 0.29823996 -0.50912746
vn -0.57735027 -0.57735027 0.57735027
vn -0.70710678 -7.8584877e-17 0.70710678
vn -0.80736742 0.29823996 -0.50912746
vn -0.62694312 -0.73450956 -0.25968834
vn -0.30151134 -0.90453403 0.30151134
vn 0.0000000e+0 -1.00000000 -5.7245875e-17
vn -0.30151134 0.90453403 0.30151134
vn 7.4461721e-18 1.00000000 6.2774919e-17
vn 0.30151134 0.90453403 0.30151134
vn -1.1286000e-17 1.00000000 5.7197117e-17
vn 0.30151134 -0.90453403 0.30151134
vn 0.0000000e+0 -1.00000000 -5.7245875e-17
vn 1.4664520e-17 0.89442719 -0.44721360
vn -2.0549631e-17 0.89442719 -0.44721360
vn -4.7030467e-2 0.95151884 0.30397373
vn 4.5842818e-2 0.95158823 0.30393795
vn 0.28109204 0.94735339 -0.15332587
vn -0.29172500 0.94298227 -0.16025283
vn -0.61066142 0.75506662 0.23867769
vn -0.70721709 0.70677590 1.7658368e-2
vn 0.70721709 0.70677590 1.7658368e-2
vn 0.59011111 0.77346735 0.23133772
vn -0.76250901 0.27618177 -0.58506720
vn -0.57735027 0.57735027 -0.57735027
vn 0.57735027 0.57735027 -0.57735027
vn 0.74896259 0.33350077 -0.57256639
vn -0.82060808 -0.41011953 0.39800045
vn 0.82060808 -0.41011953 0.39800045
vn -0.58320917 -0.58294690 0.56572076
vn 0.58320917 -0.58294690 0.56572076
vn 0.56797326 0.56726463 0.59633650
vn -0.56797326 0.56726463 0.59633650
vn 6.4124487e-2 0.90285071 0.42514544
vn -6.5786018e-2 0.90270680 0.42519717
vn -5.1338045e-2 0.99868133 -1.7427079e-17
vn 5.0040886e-2 0.99874717 -1.7424773e-17
vn 0.57735027 0.57735027 0.57735027
vn -0.57735027 0.57735027 0.57735027
vn 0.57735027 0.57735027 0.57735027
vn -0.57735027 0.57735027 0.57735027
vn -0.40824829 0.81649658 -0.40824829
vn 0.40824829 0.81649658 -0.40824829
vn -0.40824829 0.81649658 -0.40824829
vn 0.40824829 0.81649658 -0.40824829
vn -0.57735027 0.57735027 -0.57735027
vn -0.57735027 0.57735027 0.57735027
vn 0.57735027 0.57735027 0.57735027
vn 0.57735027 0.57735027 -0.57735027
vn -0.57735027 0.57735027 -0.57735027
vn -0.57735027 0.57735027 0.57735027
vn 0.57735027 0.57735027 0.57735027
vn 0.57735027 0.57735027 -0.57735027
vn 0.10037197 0.99440231 -3.3007749e-2
vn -0.10297764 0.99410706 -3.3863919e-2
vn -0.40824829 0.81649658 -0.40824829
vn -0.40824829 0.40824829 0.81649658
vn 0.40824829 0.81649658 -0.40824829
vn 0.40824829 0.40824829 0.81649658
vn 0.81649658 0.40824829 -0.40824829
vn -0.81649658 0.40824829 -0.40824829
vn 0.81649658 0.40824829 -0.40824829
vn 0.81649658 0.40824829 0.40824829
vn -0.57735027 0.57735027 -0.57735027
vn -0.57735027 0.57735027 0.57735027
vn 0.40824829 0.40824829 0.81649658
vn -0.40824829 0.40824829 0.81649658
vn -0.81649658 0.40824829 0.40824829
vn -0.81649658 0.40824829 -0.40824829
vn 0.57735027 0.57735027 -0.57735027
vn 0.57735027 0.57735027 0.57735027
vn -0.57735027 0.57735027 -0.57735027
vn 0.57735027 0.57735027 -0.57735027
vn 0.40824829 -0.40824829 0.81649658
vn 0.40824829 -0.40824829 -0.81649658
vn -0.70710678 7.6261634e-16 -0.70710678
vn -0.70710678 -7.6261634e-16 0.70710678
vn -0.81649658 -0.40824829 0.40824829
vn 0.81649658 -0.40824829 0.40824829
vn -0.81649658 -0.40824829 0.40824829
vn 0.81649658 -0.40824829 0.40824829
vn 0.70710678 5.6635478e-16 -0.70710678
vn -0.70710678 -3.3084091e-16 -0.70710678
vn -0.40824829 -0.40824829 -0.81649658
vn -0.40824829 -0.40824829 0.81649658
vn 0.70710678 -7.6261634e-16 0.70710678
vn 0.70710678 7.6261634e-16 -0.70710678
vn 0.81649658 -0.40824829 -0.40824829
vn -0.81649658 -0.40824829 -0.40824829
vn 0.81649658 -0.40824829 -0.40824829
vn -0.81649658 -0.40824829 -0.40824829
vn -0.70710678 -6.0560709e-16 0.70710678
vn 0.70710678 2.9158860e-16 0.70710678
vn -0.57735027 0.57735027 -0.57735027
vn -0.57735027 0.57735027 0.57735027
vn 0.57735027 0.57735027 -0.57735027
vn -0.57735027 0.57735027 -0.57735027
vn 0.57735027 0.57735027 -0.57735027
vn -0.57735027 0.57735027 -0.57735027
vn 0.57735027 0.57735027 0.57735027
vn 0.57735027 0.57735027 -0.57735027
vn -0.57735027 0.57735027 0.57735027
vn 0.57735027 0.57735027 0.57735027
vn -0.57735027 0.57735027 0.57735027
vn 0.57735027 0.57735027 0.57735027
vn 0.70710678 -7.4952395e-16 0.70710678
vn 0.70710678 -2.5688466e-16 -0.70710678
vn -0.70710678 1.4506148e-16 0.70710678
vn -0.70710678 6.3770077e-16 -0.70710678
vn -0.40824829 0.81649658 0.40824829
vn 0.57735027 0.57735027 0.57735027
vn 0.57735027 0.57735027 -0.57735027
vn -0.40824829 0.81649658 -0.40824829
vn 0.57735027 0.57735027 -0.57735027
vn -0.57735027 0.57735027 -0.57735027
vn -0.57735027 0.57735027 0.57735027
vn 0.57735027 0.57735027 0.57735027
g cube1_default
usemtl default
s 1
f 40//40 42//42 41//41 39//39
f 49//49 50//50 51//51 52//52 46//46 45//45
f 86//86 95//95 96//96 85//85
f 90//90 99//99 100//100 89//89
f 92//92 101//101 102//102 91//91
g cube1_gas_crossing
usemtl gas_crossing
s 1
f 21/42/21 22/292/22 28/286/28 27/309/27 20/311/20 19/57/19
g cube1_gas_fill_front
usemtl gas_fill_front
s 1
f 49/248/49 63/249/63 62/117/62 50/118/50
f 51/248/51 59/245/59 58/117/58 52/121/52
f 53/247/53 57/245/57 60/119/60 54/122/54
f 55/246/55 61/245/61 64/120/64 56/122/56
g cube1_gas_fill_side
usemtl gas_fill_side
s 1
f 50/233/50 62/236/62 61/147/61 55/143/55
f 52/233/52 58/236/58 57/147/57 53/143/53
f 54/233/54 60/235/60 59/145/59 51/144/51
f 56/233/56 64/234/64 63/146/63 49/144/49
g cube1_gas_front
usemtl gas_front
s 1
f 34/334/34 40/312/40 39/33/39 31/25/31
f 36/301/36 37/56/37 38/6/38 35/294/35
g cube1_gas_roof
usemtl gas_roof
s 1
f 32/58/32 44/4/44 43/291/43 33/335/33
f 33/335/33 37/338/37 36/59/36 32/58/32
g cube1_gas_side
usemtl gas_side
s 1
f 31/205/31 39/206/39 32/207/32 36/33/36 35/49/35
f 33/24/33 40/48/40 34/3/34 38/204/38 37/208/37
g cube1_gas_sign1
usemtl gas_sign1
s 1
f 94/61/94 91/86/91 102/271/102 103/314/103 115/298/115 110/15/110
g cube1_gas_sign2
usemtl gas_sign2
s 1
f 114/16/114 117/51/117 99/84/99 90/268/90 118/313/118 107/323/107
g cube1_gas_sign3
usemtl gas_sign3
s 1
f 105/322/105 112/14/112 98/3/98 95/81/95 86/274/86 87/313/87
g cube1_gas_sign_outer
usemtl gas_sign_outer
s 1
f 88/47/88 85/88/85 96/266/96 97/289/97 111/290/111 106/26/106
f 108/55/108 120/5/120 89/81/89 100/269/100 119/305/119 113/324/113
f 109/300/109 116/19/116 104/17/104 101/83/101 92/273/92 93/299/93
g cube1_gas_straight
usemtl gas_straight
s 1
f 19/43/19 72/258/72 84/259/84 77/284/77 78/310/78 83/262/83 71/260/71 21/57/21
f 20/304/20 69/94/69 82/93/82 79/64/79 80/44/80 81/92/81 70/91/70 19/294/19
f 21/52/21 68/256/68 75/257/75 73/285/73 74/303/74 76/263/76 67/261/67 22/70/22
f 31/138/31 47/139/47 53/189/53 54/202/54 55/212/55 56/213/56 48/242/48 34/240/34
f 31/138/31 66/38/66 27/60/27 46/137/46 47/139/47
f 48/242/48 45/241/45 28/325/28 65/302/65 34/240/34
g cube1_gas_warning
usemtl gas_warning
s 1
f 1/3/1 4/295/4 3/288/3 78/270/78 77/82/77 2/53/2
f 1/222/1 17/223/17 23/178/23 4/177/4
f 2/216/2 72/214/72 19/215/19 17/223/17 1/317/1
f 2/190/2 88/201/88 87/161/87 72/150/72
f 3/162/3 97/169/97 96/131/96 78/124/78
f 4/177/4 23/178/23 21/180/21 71/181/71 3/12/3
f 5/3/5 16/315/16 15/318/15 6/12/6
f 5/220/5 18/221/18 16/276/16
f 6/32/6 20/73/20 27/90/27 66/89/66 30/141/30 25/140/25
f 6/297/6 25/239/25 26/142/26 7/46/7 8/10/8 5/287/5
f 7/296/7 12/45/12 11/3/11 8/287/8
f 8/176/8 24/175/24 18/221/18 5/220/5
f 9/225/9 68/217/68 21/180/21 23/178/23 10/293/10
f 9/195/9 104/197/104 103/156/103 68/157/68
f 10/3/10 11/316/11 12/321/12 74/272/74 73/87/73 9/54/9
f 10/76/10 23/178/23 24/175/24 11/75/11
f 11/75/11 24/175/24 8/176/8
f 12/226/12 7/185/7 124/184/124 123/188/123 122/187/122 121/183/121 22/186/22 67/224/67
f 12/166/12 93/164/93 92/126/92 74/128/74
f 13/275/13 17/223/17 19/215/19 70/179/70 14/11/14
f 14/320/14 80/267/80 79/85/79 15/13/15 16/8/16 13/294/13
f 14/170/14 119/173/119 100/135/100 80/133/80
f 15/174/15 69/182/69 20/218/20 6/219/6
f 15/200/15 120/191/120 118/151/118 69/160/69
f 16/276/16 18/221/18 17/223/17 13/275/13
f 18/221/18 24/175/24 23/178/23 17/223/17
f 25/140/25 30/141/30 29/238/29 26/237/26
f 26/237/26 29/238/29 65/264/65 28/265/28 22/281/22 121/280/121 124/279/124 7/278/7
f 28/307/28 45/243/45 46/136/46 27/22/27
f 29/232/29 34/244/34 65/329/65
f 30/149/30 35/148/35 38/231/38 29/232/29
f 33/209/33 43/74/43 42/27/42 40/203/40
f 34/244/34 29/232/29 38/231/38
f 35/148/35 30/149/30 31/123/31
f 39/210/39 41/328/41 44/277/44 32/211/32
f 42/27/42 43/74/43 44/277/44 41/328/41
f 45/326/45 48/336/48 56/2/56 49/1/49
f 46/20/46 52/327/52 53/336/53 47/28/47
f 50/282/50 55/337/55 54/68/54 51/18/51
f 58/3/58 59/227/59 60/230/60 57/62/57
f 62/23/62 63/229/63 64/228/64 61/65/61
f 66/21/66 31/123/31 30/149/30
f 67/199/67 94/192/94 93/152/93 12/159/12
f 68/163/68 103/167/103 102/129/102 75/125/75
f 69/172/69 118/171/118 90/132/90 82/134/82
f 70/198/70 117/193/117 119/153/119 14/155/14
f 71/196/71 98/194/98 97/154/97 3/158/3
f 72/168/72 87/165/87 86/127/86 84/130/84
f 73/102/73 101/104/101 104/66/104 9/3/9
f 74/128/74 92/126/92 91/101/91 76/103/76
f 75/125/75 102/129/102 101/104/101 73/102/73
f 76/103/76 91/101/91 94/31/94 67/50/67
f 77/105/77 85/100/85 88/29/88 2/69/2
f 78/124/78 96/131/96 95/106/95 83/99/83
f 79/109/79 89/108/89 120/30/120 15/63/15
f 80/133/80 100/135/100 99/110/99 81/107/81
f 81/107/81 99/110/99 117/70/117 70/7/70
f 82/134/82 90/132/90 89/108/89 79/109/79
f 83/99/83 95/106/95 98/71/98 71/9/71
f 84/130/84 86/127/86 85/100/85 77/105/77
f 105/111/105 87/37/87 88/36/88 106/114/106
f 106/114/106 111/255/111 112/253/112 105/111/105
f 107/115/107 118/41/118 120/40/120 108/116/108
f 108/116/108 113/250/113 114/251/114 107/115/107
f 109/112/109 93/35/93 94/34/94 110/113/110
f 110/113/110 115/254/115 116/252/116 109/112/109
f 111/255/111 97/330/97 98/332/98 112/253/112
f 113/250/113 119/306/119 117/308/117 114/251/114
f 115/254/115 103/331/103 104/333/104 116/252/116
f 121/78/121 127/79/127 126/70/126 124/3/124
f 122/96/122 128/97/128 127/79/127 121/78/121
f 123/77/123 125/80/125 128/72/128 122/3/122
f 124/95/124 126/98/126 125/80/125 123/77/123
f 126/39/126 127/67/127 128/319/128 125/283/125
