# Exported from Wings 3D 1.2
mtllib tire.mtl
o cylinder1
#96 vertices, 82 faces
v 1.00000000 5.7762898e-17 1.00000000
v 0.92387950 -0.38268343 1.00000000
v 0.70710677 -0.70710677 1.00000000
v 0.38268343 -0.92387950 1.00000000
v 6.1232343e-17 -1.00000000 1.00000000
v -0.38268343 -0.92387950 1.00000000
v -0.70710677 -0.70710677 1.00000000
v -0.92387950 -0.38268343 1.00000000
v -1.00000000 -6.4701787e-17 1.00000000
v -0.92387950 0.38268343 1.00000000
v -0.70710677 0.70710677 1.00000000
v -0.38268343 0.92387950 1.00000000
v -1.8369701e-16 1.00000000 1.00000000
v 0.38268343 0.92387950 1.00000000
v 0.70710677 0.70710677 1.00000000
v 0.92387950 0.38268343 1.00000000
v 1.00000000 -6.4701792e-17 -1.00000000
v 0.92387950 -0.38268343 -1.00000000
v 0.70710677 -0.70710677 -1.00000000
v 0.38268343 -0.92387950 -1.00000000
v 6.1232343e-17 -1.00000000 -1.00000000
v -0.38268343 -0.92387950 -1.00000000
v -0.70710677 -0.70710677 -1.00000000
v -0.92387950 -0.38268343 -1.00000000
v -1.00000000 -1.8716648e-16 -1.00000000
v -0.92387950 0.38268343 -1.00000000
v -0.70710677 0.70710677 -1.00000000
v -0.38268343 0.92387950 -1.00000000
v -1.8369701e-16 1.00000000 -1.00000000
v 0.38268343 0.92387950 -1.00000000
v 0.70710677 0.70710677 -1.00000000
v 0.92387950 0.38268343 -1.00000000
v 0.70041239 1.5372235e-17 1.00000000
v 0.64709669 -0.26803622 1.00000000
v 0.49526635 -0.49526635 1.00000000
v 0.26803622 -0.64709669 1.00000000
v 6.1232343e-17 -0.70041239 1.00000000
v -0.26803622 -0.64709669 1.00000000
v -0.49526635 -0.49526635 1.00000000
v -0.64709669 -0.26803622 1.00000000
v -0.70041239 -1.3832998e-17 1.00000000
v -0.64709669 0.26803622 1.00000000
v -0.49526635 0.49526635 1.00000000
v -0.26803622 0.64709669 1.00000000
v -1.6250170e-16 0.70041239 1.00000000
v 0.26803622 0.64709669 1.00000000
v 0.49526635 0.49526635 1.00000000
v 0.64709669 0.26803622 1.00000000
v 0.56593323 -1.1443054e-16 0.89297777
v 0.52285409 -0.21657327 0.89297777
v 0.40017521 -0.40017521 0.89297777
v 0.21657327 -0.52285409 0.89297777
v 3.6374516e-17 -0.56593323 0.89297777
v -0.21657327 -0.52285409 0.89297777
v -0.40017521 -0.40017521 0.89297777
v -0.52285409 -0.21657327 0.89297777
v -0.56593323 -5.0856109e-17 0.89297777
v -0.52285409 0.21657327 0.89297777
v -0.40017521 0.40017521 0.89297777
v -0.21657327 0.52285409 0.89297777
v -1.2705514e-16 0.56593323 0.89297777
v 0.21657327 0.52285409 0.89297777
v 0.40017521 0.40017521 0.89297777
v 0.52285409 0.21657327 0.89297777
v 0.75000000 -5.4089541e-17 -1.00000000
v 0.69290966 -0.28701258 -1.00000000
v 0.53033006 -0.53033006 -1.00000000
v 0.28701258 -0.69290966 -1.00000000
v 5.0620092e-17 -0.75000000 -1.00000000
v -0.28701258 -0.69290966 -1.00000000
v -0.53033006 -0.53033006 -1.00000000
v -0.69290966 -0.28701258 -1.00000000
v -0.75000000 -1.6240455e-16 -1.00000000
v -0.69290966 0.28701258 -1.00000000
v -0.53033006 0.53033006 -1.00000000
v -0.28701258 0.69290966 -1.00000000
v -1.6247251e-16 0.75000000 -1.00000000
v 0.28701258 0.69290966 -1.00000000
v 0.53033006 0.53033006 -1.00000000
v 0.69290966 0.28701258 -1.00000000
v 0.56250000 -3.5518100e-17 -0.89999998
v 0.51968223 -0.21525942 -0.89999998
v 0.39774755 -0.39774755 -0.89999998
v 0.21525942 -0.51968223 -0.89999998
v 1.3689480e-17 -0.56250000 -0.89999998
v -0.21525942 -0.51968223 -0.89999998
v -0.39774755 -0.39774755 -0.89999998
v -0.51968223 -0.21525942 -0.89999998
v -0.56250000 -1.2526168e-16 -0.89999998
v -0.51968223 0.21525942 -0.89999998
v -0.39774755 0.39774755 -0.89999998
v -0.21525942 0.51968223 -0.89999998
v -1.3838267e-16 0.56250000 -0.89999998
v 0.21525942 0.51968223 -0.89999998
v 0.39774755 0.39774755 -0.89999998
v 0.51968223 0.21525942 -0.89999998
vt 0.0000000e+0 0.24371310
vt 0.0000000e+0 0.74923939
vt 0.0000000e+0 0.75076061
vt 1.7773361e-9 0.12500000
vt 1.8008037e-9 0.37500000
vt 2.0443460e-9 0.25000000
vt 2.2746720e-9 -6.3807954e-9
vt 3.8856816e-9 0.12500000
vt 4.1312909e-9 1.00000000
vt 4.1312926e-9 1.2911749e-9
vt 5.2813052e-9 0.87500000
vt 5.5816800e-9 0.25000000
vt 5.6221436e-9 0.50000000
vt 6.5643269e-9 0.75000000
vt 8.2967437e-9 0.62500000
vt 8.4366736e-9 0.37500000
vt 1.1206678e-8 0.50000000
vt 1.3976683e-8 0.62500000
vt 1.6831677e-8 0.75000000
vt 1.8527675e-8 0.87500000
vt 2.0138685e-8 1.00000000
vt 1.7904252e-2 0.14997944
vt 1.8665973e-2 0.33755332
vt 1.8972225e-2 0.65538085
vt 1.8972225e-2 0.84614038
vt 1.9088032e-2 0.65327746
vt 1.9088032e-2 0.84520131
vt 5.8422457e-2 0.24343358
vt 6.7004904e-2 0.25955427
vt 6.9954604e-2 7.0385404e-2
vt 7.1064271e-2 0.41760844
vt 7.1831025e-2 0.17168479
vt 7.2856434e-2 0.31540778
vt 7.3000528e-2 0.57452178
vt 7.3000528e-2 0.92699945
vt 7.3446088e-2 0.57192487
vt 7.3446088e-2 0.92655391
vt 8.1378415e-2 0.18629521
vt 8.1569530e-2 0.33277553
vt 0.11116087 0.11097877
vt 0.11296141 0.37689123
vt 0.12022677 0.25948483
vt 0.12254303 0.12405369
vt 0.12289643 0.39490944
vt 0.13060583 0.20646384
vt 0.13074414 0.31247854
vt 0.14873147 1.7231075e-2
vt 0.14949140 0.47197521
vt 0.15385960 0.52049345
vt 0.15385960 0.98102778
vt 0.15479869 0.51756680
vt 0.15479869 0.98091197
vt 0.16031852 0.16143325
vt 0.16057426 0.35743144
vt 0.17061006 7.0768349e-2
vt 0.17278226 0.41871402
vt 0.18433587 8.2277380e-2
vt 0.18479808 0.43652436
vt 0.20488024 0.13123734
vt 0.20521460 0.38751096
vt 0.24120606 5.7834353e-2
vt 0.24218877 0.0000000e+0
vt 0.24238887 0.49233472
vt 0.24337156 0.43450037
vt 0.24923939 0.50152123
vt 0.24923939 1.00000000
vt 0.25076061 0.49847877
vt 0.25076061 1.00000000
vt 0.25746083 6.7419417e-2
vt 0.25753012 0.12053544
vt 0.25789225 0.39807543
vt 0.25796154 0.45119146
vt 0.31020775 0.13109991
vt 0.31054214 0.38737354
vt 0.31179538 7.3620692e-2
vt 0.31396759 0.42156637
vt 0.33062428 8.2086518e-2
vt 0.33108649 0.43633351
vt 0.33508623 2.0359503e-2
vt 0.33584616 0.47510365
vt 0.34461915 0.52049345
vt 0.34461915 0.98102778
vt 0.34672254 0.51756680
vt 0.34672254 0.98091197
vt 0.35484812 0.16117944
vt 0.35510385 0.35717764
vt 0.37161621 0.11544348
vt 0.37341675 0.38135594
vt 0.38467821 0.20613234
vt 0.38481653 0.31214705
vt 0.39252594 0.12370145
vt 0.39287934 0.39455718
vt 0.39519560 0.25912607
vt 0.41172120 0.17692693
vt 0.41274661 0.32064992
vt 0.41351336 7.4726261e-2
vt 0.41462302 0.42194930
vt 0.42547825 0.57452178
vt 0.42547825 0.92699945
vt 0.42615518 0.24890113
vt 0.42807513 0.57192487
vt 0.42807513 0.92655391
vt 0.43385282 0.18583533
vt 0.43404394 0.33231565
vt 0.44841745 0.25905663
vt 0.46591166 0.15478140
vt 0.46667337 0.34235525
vt 0.47950655 0.65538085
vt 0.47950655 0.84614038
vt 0.48243320 0.65327746
vt 0.48243320 0.84520131
vt 0.48457763 0.24862161
vt 0.49847877 0.75076061
vt 0.50000000 0.75000000
vt 0.50152123 0.74923939
vt 0.51903009 0.65432912
vt 0.51903009 0.84567088
vt 0.54500002 0.75000000
vt 0.56060469 0.67154992
vt 0.56060469 0.82845008
vt 0.56250000 0.75000000
vt 0.57322329 0.57322329
vt 0.57322329 0.92677671
vt 0.57677257 0.67824686
vt 0.57677257 0.82175314
vt 0.60504311 0.60504311
vt 0.60504311 0.89495689
vt 0.60641545 0.75000000
vt 0.61734515 0.69505256
vt 0.61734515 0.80494744
vt 0.61741745 0.61741745
vt 0.61741745 0.88258255
vt 0.64847040 0.64847040
vt 0.64847040 0.85152960
vt 0.65432912 0.51903009
vt 0.65432912 0.98096991
vt 0.67154992 0.56060469
vt 0.67154992 0.93939531
vt 0.67824686 0.57677257
vt 0.67824686 0.92322743
vt 0.69505256 0.61734515
vt 0.69505256 0.88265485
vt 0.75000000 0.50000000
vt 0.75000000 0.54500002
vt 0.75000000 0.56250000
vt 0.75000000 0.60641545
vt 0.75000000 0.89358455
vt 0.75000000 0.93750000
vt 0.75000000 0.95499998
vt 0.75000000 1.00000000
vt 0.80494744 0.61734515
vt 0.80494744 0.88265485
vt 0.82175314 0.57677257
vt 0.82175314 0.92322743
vt 0.82845008 0.56060469
vt 0.82845008 0.93939531
vt 0.84567088 0.51903015
vt 0.84567088 0.98096991
vt 0.85152960 0.64847040
vt 0.85152960 0.85152960
vt 0.88258255 0.61741745
vt 0.88258255 0.88258255
vt 0.88265485 0.69505256
vt 0.88265485 0.80494744
vt 0.89358455 0.75000000
vt 0.89495689 0.60504311
vt 0.89495689 0.89495689
vt 0.92322743 0.67824686
vt 0.92322743 0.82175314
vt 0.92677671 0.57322329
vt 0.92677671 0.92677671
vt 0.93750000 0.75000000
vt 0.93939531 0.67154992
vt 0.93939531 0.82845008
vt 0.95499998 0.75000000
vt 0.98096985 0.65432912
vt 0.98096985 0.84567088
vt 1.00000000 -1.0047684e-8
vt 1.00000000 5.3348537e-10
vt 1.00000000 0.12499999
vt 1.00000000 0.12500000
vt 1.00000000 0.25000000
vt 1.00000000 0.37500000
vt 1.00000000 0.50000000
vt 1.00000000 0.62500000
vt 1.00000000 0.75000000
vt 1.00000000 0.87500000
vt 1.00000000 1.00000000
vn 0.70021450 0.0000000e+0 0.71393253
vn 0.64691385 -0.26796051 0.71393252
vn 0.49512643 -0.49512643 0.71393252
vn 0.26796051 -0.64691385 0.71393252
vn 2.9723412e-17 -0.70021450 0.71393253
vn -0.26796051 -0.64691385 0.71393252
vn -0.49512643 -0.49512643 0.71393252
vn -0.64691385 -0.26796051 0.71393252
vn -0.70021450 -2.9723412e-17 0.71393253
vn -0.64691385 0.26796051 0.71393252
vn -0.49512643 0.49512643 0.71393252
vn -0.26796051 0.64691385 0.71393252
vn -6.9354629e-17 0.70021450 0.71393253
vn 0.26796051 0.64691385 0.71393252
vn 0.49512643 0.49512643 0.71393252
vn 0.64691385 0.26796051 0.71393252
vn 0.70021450 0.0000000e+0 -0.71393253
vn 0.64691385 -0.26796051 -0.71393252
vn 0.49512643 -0.49512643 -0.71393252
vn 0.26796051 -0.64691385 -0.71393252
vn 2.9723412e-17 -0.70021450 -0.71393253
vn -0.26796051 -0.64691385 -0.71393252
vn -0.49512643 -0.49512643 -0.71393252
vn -0.64691385 -0.26796051 -0.71393252
vn -0.70021450 -2.9723412e-17 -0.71393253
vn -0.64691385 0.26796051 -0.71393252
vn -0.49512643 0.49512643 -0.71393252
vn -0.26796051 0.64691385 -0.71393252
vn -6.9354629e-17 0.70021450 -0.71393253
vn 0.26796051 0.64691385 -0.71393252
vn 0.49512643 0.49512643 -0.71393252
vn 0.64691385 0.26796051 -0.71393252
vn -0.32854815 0.0000000e+0 0.94448722
vn -0.30353892 0.12572994 0.94448722
vn -0.23231863 0.23231863 0.94448722
vn -0.12572994 0.30353892 0.94448722
vn -1.8445272e-17 0.32854815 0.94448722
vn 0.12572994 0.30353892 0.94448722
vn 0.23231863 0.23231863 0.94448722
vn 0.30353892 0.12572994 0.94448722
vn 0.32854815 -3.6890544e-18 0.94448722
vn 0.30353892 -0.12572994 0.94448722
vn 0.23231863 -0.23231863 0.94448722
vn 0.12572994 -0.30353892 0.94448722
vn 3.6890544e-17 -0.32854815 0.94448722
vn -0.12572994 -0.30353892 0.94448722
vn -0.23231863 -0.23231863 0.94448722
vn -0.30353892 -0.12572994 0.94448722
vn -0.43573599 0.0000000e+0 0.90007452
vn -0.40256756 0.16674895 0.90007452
vn -0.30811188 0.30811188 0.90007452
vn -0.16674895 0.40256756 0.90007452
vn -2.4462985e-17 0.43573599 0.90007452
vn 0.16674895 0.40256756 0.90007452
vn 0.30811188 0.30811188 0.90007452
vn 0.40256756 0.16674895 0.90007452
vn 0.43573599 -4.8925971e-18 0.90007452
vn 0.40256756 -0.16674895 0.90007452
vn 0.30811188 -0.30811188 0.90007452
vn 0.16674895 -0.40256756 0.90007452
vn 4.8925971e-17 -0.43573599 0.90007452
vn -0.16674895 -0.40256756 0.90007452
vn -0.30811188 -0.30811188 0.90007452
vn -0.40256756 -0.16674895 0.90007452
vn -0.24200666 2.1504139e-17 -0.97027459
vn -0.22358500 9.2611953e-2 -0.97027459
vn -0.17112456 0.17112456 -0.97027459
vn -9.2611953e-2 0.22358500 -0.97027459
vn -3.5840232e-18 0.24200666 -0.97027459
vn 9.2611953e-2 0.22358500 -0.97027459
vn 0.17112456 0.17112456 -0.97027459
vn 0.22358500 9.2611953e-2 -0.97027459
vn 0.24200666 3.5840232e-17 -0.97027459
vn 0.22358500 -9.2611953e-2 -0.97027459
vn 0.17112456 -0.17112456 -0.97027459
vn 9.2611953e-2 -0.22358500 -0.97027459
vn 2.8672186e-17 -0.24200666 -0.97027459
vn -9.2611953e-2 -0.22358500 -0.97027459
vn -0.17112456 -0.17112456 -0.97027459
vn -0.22358500 -9.2611953e-2 -0.97027459
vn -0.32180782 2.8595081e-17 -0.94680501
vn -0.29731165 0.12315054 -0.94680501
vn -0.22755250 0.22755250 -0.94680501
vn -0.12315054 0.29731165 -0.94680501
vn -4.7658468e-18 0.32180782 -0.94680501
vn 0.12315054 0.29731165 -0.94680501
vn 0.22755250 0.22755250 -0.94680501
vn 0.29731165 0.12315054 -0.94680501
vn 0.32180782 4.7658468e-17 -0.94680501
vn 0.29731165 -0.12315054 -0.94680501
vn 0.22755250 -0.22755250 -0.94680501
vn 0.12315054 -0.29731165 -0.94680501
vn 3.8126775e-17 -0.32180782 -0.94680501
vn -0.12315054 -0.29731165 -0.94680501
vn -0.22755250 -0.22755250 -0.94680501
vn -0.29731165 -0.12315054 -0.94680501
g cylinder1_tire
usemtl tire
s 1
f 1/175/1 33/165/33 34/163/34 2/173/2
f 2/173/2 34/163/34 35/159/35 3/166/3
f 3/166/3 35/159/35 36/151/36 4/155/4
f 4/155/4 36/151/36 37/146/37 5/144/5
f 5/144/5 37/146/37 38/141/38 6/137/6
f 6/137/6 38/141/38 39/133/39 7/126/7
f 7/126/7 39/133/39 40/129/40 8/119/8
f 8/119/8 40/129/40 41/128/41 9/118/9
f 9/118/9 41/128/41 42/130/42 10/120/10
f 10/120/10 42/130/42 43/134/43 11/127/11
f 11/127/11 43/134/43 44/142/44 12/138/12
f 12/138/12 44/142/44 45/147/45 13/149/13
f 13/149/13 45/147/45 46/152/46 14/156/14
f 14/156/14 46/152/46 47/160/47 15/167/15
f 15/167/15 47/160/47 48/164/48 16/174/16
f 16/174/16 48/164/48 33/165/33 1/175/1
f 17/114/17 65/121/65 80/125/80 32/117/32
f 18/116/18 66/124/66 65/121/65 17/114/17
f 19/122/19 67/131/67 66/124/66 18/116/18
f 20/135/20 68/139/68 67/131/67 19/122/19
f 21/143/21 69/145/69 68/139/68 20/135/20
f 22/157/22 70/153/70 69/145/69 21/143/21
f 23/170/23 71/161/71 70/153/70 22/157/22
f 24/176/24 72/168/72 71/161/71 23/170/23
f 25/186/25 73/172/73 72/168/72 24/176/24
f 26/177/26 74/169/74 73/172/73 25/186/25
f 27/171/27 75/162/75 74/169/74 26/177/26
f 28/158/28 76/154/76 75/162/75 27/171/27
f 29/150/29 77/148/77 76/154/76 28/158/28
f 30/136/30 78/140/78 77/148/77 29/150/29
f 31/123/31 79/132/79 78/140/78 30/136/30
f 32/117/32 80/125/80 79/132/79 31/123/31
f 33/112/33 49/100/49 50/94/50 34/106/34
f 34/106/34 50/94/50 51/87/51 35/96/35
f 35/96/35 51/87/51 52/75/52 36/79/36
f 36/79/36 52/75/52 53/61/53 37/62/37
f 37/62/37 53/61/53 54/55/54 38/47/38
f 38/47/38 54/55/54 55/40/55 39/30/39
f 39/30/39 55/40/55 56/32/56 40/22/40
f 40/22/40 56/32/56 57/28/57 41/1/41
f 41/1/41 57/28/57 58/33/58 42/23/42
f 42/23/42 58/33/58 59/41/59 43/31/43
f 43/31/43 59/41/59 60/56/60 44/48/44
f 44/48/44 60/56/60 61/64/61 45/63/45
f 45/63/45 61/64/61 62/76/62 46/80/46
f 46/80/46 62/76/62 63/88/63 47/97/47
f 47/97/47 63/88/63 64/95/64 48/107/48
f 48/107/48 64/95/64 49/100/49 33/112/33
f 49/115/49 64/111/64 63/102/63 62/84/62 61/68/61 60/52/60 59/37/59 58/27/58 57/2/57 56/26/56 55/36/55 54/51/54 53/67/53 52/83/52 51/101/51 50/110/50
f 65/29/65 81/42/81 96/46/96 80/39/80
f 66/38/66 82/45/82 81/42/81 65/29/65
f 67/43/67 83/53/83 82/45/82 66/38/66
f 68/57/68 84/59/84 83/53/83 67/43/67
f 69/69/69 85/70/85 84/59/84 68/57/68
f 70/77/70 86/73/86 85/70/85 69/69/69
f 71/91/71 87/85/87 86/73/86 70/77/70
f 72/103/72 88/89/88 87/85/87 71/91/71
f 73/105/73 89/93/89 88/89/88 72/103/72
f 74/104/74 90/90/90 89/93/89 73/105/73
f 75/92/75 91/86/91 90/90/90 74/104/74
f 76/78/76 92/74/92 91/86/91 75/92/75
f 77/72/77 93/71/93 92/74/92 76/78/76
f 78/58/78 94/60/94 93/71/93 77/72/77
f 79/44/79 95/54/95 94/60/94 78/58/78
f 80/39/80 96/46/96 95/54/95 79/44/79
f 82/24/82 83/34/83 84/49/84 85/65/85 86/81/86 87/98/87 88/108/88 89/113/89 90/109/90 91/99/91 92/82/92 93/66/93 94/50/94 95/35/95 96/25/96 81/3/81
g cylinder1_tire2
usemtl tire2
s 1
f 1/181/1 17/4/17 32/10/32 16/179/16
f 2/182/2 18/6/18 17/4/17 1/181/1
f 3/183/3 19/5/19 18/6/18 2/182/2
f 4/184/4 20/13/20 19/5/19 3/183/3
f 5/185/5 21/15/21 20/13/20 4/184/4
f 6/186/6 22/14/22 21/15/21 5/185/5
f 7/187/7 23/11/23 22/14/22 6/186/6
f 8/188/8 24/9/24 23/11/23 7/187/7
f 9/180/9 25/8/25 24/7/24 8/178/8
f 10/182/10 26/12/26 25/8/25 9/180/9
f 11/183/11 27/16/27 26/12/26 10/182/10
f 12/184/12 28/17/28 27/16/27 11/183/11
f 13/185/13 29/18/29 28/17/28 12/184/12
f 14/186/14 30/19/30 29/18/29 13/185/13
f 15/187/15 31/20/31 30/19/30 14/186/14
f 16/188/16 32/21/32 31/20/31 15/187/15
