# Exported from Wings 3D 1.2
mtllib horizon.mtl
o sphere1
#114 vertices, 128 faces
v 0.38268343 0.92387953 0.0000000e+0
v 0.35355339 0.92387953 0.14644661
v 0.27059805 0.92387953 0.27059805
v 0.14644661 0.92387953 0.35355339
v 2.3432602e-17 0.92387953 0.38268343
v -0.14644661 0.92387953 0.35355339
v -0.27059805 0.92387953 0.27059805
v -0.35355339 0.92387953 0.14644661
v -0.38268343 0.92387953 4.6865204e-17
v -0.35355339 0.92387953 -0.14644661
v -0.27059805 0.92387953 -0.27059805
v -0.14644661 0.92387953 -0.35355339
v -7.0297806e-17 0.92387953 -0.38268343
v 0.14644661 0.92387953 -0.35355339
v 0.27059805 0.92387953 -0.27059805
v 0.35355339 0.92387953 -0.14644661
v 0.70710678 0.70710678 0.0000000e+0
v 0.65328148 0.70710678 0.27059805
v 0.50000000 0.70710678 0.50000000
v 0.27059805 0.70710678 0.65328148
v 4.3297803e-17 0.70710678 0.70710678
v -0.27059805 0.70710678 0.65328148
v -0.50000000 0.70710678 0.50000000
v -0.65328148 0.70710678 0.27059805
v -0.70710678 0.70710678 8.6595606e-17
v -0.65328148 0.70710678 -0.27059805
v -0.50000000 0.70710678 -0.50000000
v -0.27059805 0.70710678 -0.65328148
v -1.2989341e-16 0.70710678 -0.70710678
v 0.27059805 0.70710678 -0.65328148
v 0.50000000 0.70710678 -0.50000000
v 0.65328148 0.70710678 -0.27059805
v 0.92387953 0.38268343 0.0000000e+0
v 0.85355339 0.38268343 0.35355339
v 0.65328148 0.38268343 0.65328148
v 0.35355339 0.38268343 0.85355339
v 5.6571306e-17 0.38268343 0.92387953
v -0.35355339 0.38268343 0.85355339
v -0.65328148 0.38268343 0.65328148
v -0.85355339 0.38268343 0.35355339
v -0.92387953 0.38268343 1.1314261e-16
v -0.85355339 0.38268343 -0.35355339
v -0.65328148 0.38268343 -0.65328148
v -0.35355339 0.38268343 -0.85355339
v -1.6971392e-16 0.38268343 -0.92387953
v 0.35355339 0.38268343 -0.85355339
v 0.65328148 0.38268343 -0.65328148
v 0.85355339 0.38268343 -0.35355339
v 1.00000000 6.1232340e-17 0.0000000e+0
v 0.92387953 6.1232340e-17 0.38268343
v 0.70710678 6.1232340e-17 0.70710678
v 0.38268343 6.1232340e-17 0.92387953
v 6.1232340e-17 6.1232340e-17 1.00000000
v -0.38268343 6.1232340e-17 0.92387953
v -0.70710678 6.1232340e-17 0.70710678
v -0.92387953 6.1232340e-17 0.38268343
v -1.00000000 6.1232340e-17 1.2246468e-16
v -0.92387953 6.1232340e-17 -0.38268343
v -0.70710678 6.1232340e-17 -0.70710678
v -0.38268343 6.1232340e-17 -0.92387953
v -1.8369702e-16 6.1232340e-17 -1.00000000
v 0.38268343 6.1232340e-17 -0.92387953
v 0.70710678 6.1232340e-17 -0.70710678
v 0.92387953 6.1232340e-17 -0.38268343
v 0.92387953 -0.38268343 0.0000000e+0
v 0.85355339 -0.38268343 0.35355339
v 0.65328148 -0.38268343 0.65328148
v 0.35355339 -0.38268343 0.85355339
v 5.6571306e-17 -0.38268343 0.92387953
v -0.35355339 -0.38268343 0.85355339
v -0.65328148 -0.38268343 0.65328148
v -0.85355339 -0.38268343 0.35355339
v -0.92387953 -0.38268343 1.1314261e-16
v -0.85355339 -0.38268343 -0.35355339
v -0.65328148 -0.38268343 -0.65328148
v -0.35355339 -0.38268343 -0.85355339
v -1.6971392e-16 -0.38268343 -0.92387953
v 0.35355339 -0.38268343 -0.85355339
v 0.65328148 -0.38268343 -0.65328148
v 0.85355339 -0.38268343 -0.35355339
v 0.70710678 -0.70710678 0.0000000e+0
v 0.65328148 -0.70710678 0.27059805
v 0.50000000 -0.70710678 0.50000000
v 0.27059805 -0.70710678 0.65328148
v 4.3297803e-17 -0.70710678 0.70710678
v -0.27059805 -0.70710678 0.65328148
v -0.50000000 -0.70710678 0.50000000
v -0.65328148 -0.70710678 0.27059805
v -0.70710678 -0.70710678 8.6595606e-17
v -0.65328148 -0.70710678 -0.27059805
v -0.50000000 -0.70710678 -0.50000000
v -0.27059805 -0.70710678 -0.65328148
v -1.2989341e-16 -0.70710678 -0.70710678
v 0.27059805 -0.70710678 -0.65328148
v 0.50000000 -0.70710678 -0.50000000
v 0.65328148 -0.70710678 -0.27059805
v 0.38268343 -0.92387953 0.0000000e+0
v 0.35355339 -0.92387953 0.14644661
v 0.27059805 -0.92387953 0.27059805
v 0.14644661 -0.92387953 0.35355339
v 2.3432602e-17 -0.92387953 0.38268343
v -0.14644661 -0.92387953 0.35355339
v -0.27059805 -0.92387953 0.27059805
v -0.35355339 -0.92387953 0.14644661
v -0.38268343 -0.92387953 4.6865204e-17
v -0.35355339 -0.92387953 -0.14644661
v -0.27059805 -0.92387953 -0.27059805
v -0.14644661 -0.92387953 -0.35355339
v -7.0297806e-17 -0.92387953 -0.38268343
v 0.14644661 -0.92387953 -0.35355339
v 0.27059805 -0.92387953 -0.27059805
v 0.35355339 -0.92387953 -0.14644661
v 0.0000000e+0 1.00000000 0.0000000e+0
v 0.0000000e+0 -1.00000000 0.0000000e+0
vt 0.25000000 0.78652611
vt 0.25000000 0.25746466
vt 0.26788236 0.16227471
vt 0.26943885 0.68880044
vt 0.27000770 0.35805014
vt 0.28446229 0.88001690
vt 0.31727960 8.2557609e-2
vt 0.32088218 0.61000551
vt 0.33279479 0.25371858
vt 0.33560488 0.77980033
vt 0.33960278 0.43337791
vt 0.34297276 0.18948375
vt 0.34514925 0.71622128
vt 0.34757994 0.94981103
vt 0.34876155 0.31793626
vt 0.35496137 0.84110871
vt 0.37583794 0.13456024
vt 0.37816783 0.66234752
vt 0.39076345 2.6442399e-2
vt 0.39131622 0.36861117
vt 0.39486081 0.55681652
vt 0.39598836 0.88916488
vt 0.39647161 0.24934460
vt 0.39882466 0.77483330
vt 0.40208095 0.20950321
vt 0.40393260 0.73597038
vt 0.40692180 0.28831188
vt 0.40993920 0.81242164
vt 0.42229255 0.17489531
vt 0.42378076 0.70229383
vt 0.42608737 9.5792313e-2
vt 0.42711300 0.47488533
vt 0.42808875 0.62526689
vt 0.42895745 0.99079403
vt 0.43229617 0.31967741
vt 0.43480314 0.84258526
vt 0.44925789 0.39814874
vt 0.45036604 0.24506915
vt 0.45108768 0.91799430
vt 0.45160517 0.77068645
vt 0.45286190 0.22597246
vt 0.45387075 0.15033823
vt 0.45389851 0.75217080
vt 0.45479026 0.67874410
vt 0.45547825 0.26357928
vt 0.45676199 0.78861676
vt 0.46249461 0.20919581
vt 0.46323904 0.73595734
vt 0.46744437 0.27859831
vt 0.46782060 0.33856701
vt 0.46851998 0.80317255
vt 0.46910995 0.86100324
vt 0.47776695 0.19725259
vt 0.47812309 0.72447989
vt 0.47936138 0.0000000e+0
vt 0.48168462 0.53376835
vt 0.48435850 0.28780838
vt 0.48501386 0.81218471
vt 0.48699191 7.7943108e-2
vt 0.48760728 0.60915122
vt 0.49226564 0.66844224
vt 0.49230201 0.13923545
vt 0.49627225 0.71943782
vt 0.49640749 0.19192202
vt 0.50000000 0.76688418
vt 0.50000000 0.24090178
vt 0.50359251 0.28988154
vt 0.50372775 0.81433054
vt 0.50769799 0.34256811
vt 0.50773436 0.86532611
vt 0.51239272 0.92461714
vt 0.51300809 0.40386045
vt 0.51498614 0.72158365
vt 0.51564150 0.19399518
vt 0.51831538 1.00000000
vt 0.52063862 0.48180356
vt 0.52187691 0.80928846
vt 0.52223305 0.28455097
vt 0.53089005 0.67276511
vt 0.53148002 0.73059580
vt 0.53217940 0.14323655
vt 0.53255563 0.20320525
vt 0.53676096 0.79781101
vt 0.53750539 0.27260775
vt 0.54323801 0.74515160
vt 0.54452175 0.21822428
vt 0.54520974 0.85502425
vt 0.54610149 0.78159755
vt 0.54612925 0.33146533
vt 0.54713810 0.25583110
vt 0.54839483 0.76308190
vt 0.54891232 0.61577405
vt 0.54963396 0.23673440
vt 0.55074211 8.3654820e-2
vt 0.56519686 0.69118309
vt 0.56770383 0.16212615
vt 0.57104255 0.54297432
vt 0.57191125 0.90850146
vt 0.57288700 6.9182293e-3
vt 0.57391263 0.38601124
vt 0.57621924 0.83147452
vt 0.57770745 0.30690825
vt 0.59006080 0.72134671
vt 0.59307820 0.19349167
vt 0.59606740 0.79779797
vt 0.59791905 0.27230035
vt 0.60117534 0.75893506
vt 0.60352839 0.23245895
vt 0.60401164 0.64460348
vt 0.60513919 0.97695183
vt 0.60868378 0.11319238
vt 0.60923655 0.45536116
vt 0.62183217 0.87142084
vt 0.62416206 0.34724331
vt 0.64503863 0.69265964
vt 0.65123845 0.16386730
vt 0.65242006 0.58395732
vt 0.65485075 0.81754708
vt 0.65702724 0.29231981
vt 0.66039722 4.8425648e-2
vt 0.66439512 0.75396802
vt 0.66720521 0.22808498
vt 0.67911782 0.92376285
vt 0.68272040 0.39924595
vt 0.71553771 0.65375146
vt 0.72999230 0.12375342
vt 0.73056115 0.84496791
vt 0.73211764 0.31952885
vt 0.75000000 0.22433890
vt 0.75000000 0.74724224
vn 0.38219484 0.92408176 -9.9385732e-17
vn 0.35310199 0.92408176 0.14625963
vn 0.27025256 0.92408176 0.27025256
vn 0.14625963 0.92408176 0.35310199
vn 0.0000000e+0 0.92408176 0.38219484
vn -0.14625963 0.92408176 0.35310199
vn -0.27025256 0.92408176 0.27025256
vn -0.35310199 0.92408176 0.14625963
vn -0.38219484 0.92408176 4.6143376e-17
vn -0.35310199 0.92408176 -0.14625963
vn -0.27025256 0.92408176 -0.27025256
vn -0.14625963 0.92408176 -0.35310199
vn -4.2593885e-17 0.92408176 -0.38219484
vn 0.14625963 0.92408176 -0.35310199
vn 0.27025256 0.92408176 -0.27025256
vn 0.35310199 0.92408176 -0.14625963
vn 0.70658450 0.70762868 -5.7154588e-17
vn 0.65279895 0.70762868 0.27039818
vn 0.49963069 0.70762868 0.49963069
vn 0.27039818 0.70762868 0.65279895
vn 7.1443235e-18 0.70762868 0.70658450
vn -0.27039818 0.70762868 0.65279895
vn -0.49963069 0.70762868 0.49963069
vn -0.65279895 0.70762868 0.27039818
vn -0.70658450 0.70762868 1.3574215e-16
vn -0.65279895 0.70762868 -0.27039818
vn -0.49963069 0.70762868 -0.49963069
vn -0.27039818 0.70762868 -0.65279895
vn -5.7154588e-17 0.70762868 -0.70658450
vn 0.27039818 0.70762868 -0.65279895
vn 0.49963069 0.70762868 -0.49963069
vn 0.65279895 0.70762868 -0.27039818
vn 0.92368212 0.38315969 -1.1503246e-16
vn 0.85337100 0.38315969 0.35347784
vn 0.65314189 0.38315969 0.65314189
vn 0.35347784 0.38315969 0.85337100
vn 7.1895288e-18 0.38315969 0.92368212
vn -0.35347784 0.38315969 0.85337100
vn -0.65314189 0.38315969 0.65314189
vn -0.85337100 0.38315969 0.35347784
vn -0.92368212 0.38315969 1.4379058e-16
vn -0.85337100 0.38315969 -0.35347784
vn -0.65314189 0.38315969 -0.65314189
vn -0.35347784 0.38315969 -0.85337100
vn -1.0784293e-16 0.38315969 -0.92368212
vn 0.35347784 0.38315969 -0.85337100
vn 0.65314189 0.38315969 -0.65314189
vn 0.85337100 0.38315969 -0.35347784
vn 1.00000000 0.0000000e+0 -1.5858068e-16
vn 0.92387953 7.2082126e-18 0.38268343
vn 0.70710678 -7.2082126e-18 0.70710678
vn 0.38268343 0.0000000e+0 0.92387953
vn 0.0000000e+0 0.0000000e+0 1.00000000
vn -0.38268343 0.0000000e+0 0.92387953
vn -0.70710678 7.2082126e-18 0.70710678
vn -0.92387953 -7.2082126e-18 0.38268343
vn -1.00000000 0.0000000e+0 1.1533140e-16
vn -0.92387953 -7.2082126e-18 -0.38268343
vn -0.70710678 -7.2082126e-18 -0.70710678
vn -0.38268343 -7.2082126e-18 -0.92387953
vn -1.4416425e-16 7.2082126e-18 -1.00000000
vn 0.38268343 0.0000000e+0 -0.92387953
vn 0.70710678 7.2082126e-18 -0.70710678
vn 0.92387953 7.2082126e-18 -0.38268343
vn 0.92368212 -0.38315969 -1.2941152e-16
vn 0.85337100 -0.38315969 0.35347784
vn 0.65314189 -0.38315969 0.65314189
vn 0.35347784 -0.38315969 0.85337100
vn 0.0000000e+0 -0.38315969 0.92368212
vn -0.35347784 -0.38315969 0.85337100
vn -0.65314189 -0.38315969 0.65314189
vn -0.85337100 -0.38315969 0.35347784
vn -0.92368212 -0.38315969 1.4379058e-16
vn -0.85337100 -0.38315969 -0.35347784
vn -0.65314189 -0.38315969 -0.65314189
vn -0.35347784 -0.38315969 -0.85337100
vn -1.0784293e-16 -0.38315969 -0.92368212
vn 0.35347784 -0.38315969 -0.85337100
vn 0.65314189 -0.38315969 -0.65314189
vn 0.85337100 -0.38315969 -0.35347784
vn 0.70658450 -0.70762868 -6.4298911e-17
vn 0.65279895 -0.70762868 0.27039818
vn 0.49963069 -0.70762868 0.49963069
vn 0.27039818 -0.70762868 0.65279895
vn 0.0000000e+0 -0.70762868 0.70658450
vn -0.27039818 -0.70762868 0.65279895
vn -0.49963069 -0.70762868 0.49963069
vn -0.65279895 -0.70762868 0.27039818
vn -0.70658450 -0.70762868 1.5003079e-16
vn -0.65279895 -0.70762868 -0.27039818
vn -0.49963069 -0.70762868 -0.49963069
vn -0.27039818 -0.70762868 -0.65279895
vn -5.7154588e-17 -0.70762868 -0.70658450
vn 0.27039818 -0.70762868 -0.65279895
vn 0.49963069 -0.70762868 -0.49963069
vn 0.65279895 -0.70762868 -0.27039818
vn 0.38219484 -0.92408176 4.6498325e-16
vn 0.35310199 -0.92408176 0.14625963
vn 0.27025256 -0.92408176 0.27025256
vn 0.14625963 -0.92408176 0.35310199
vn 3.5494904e-18 -0.92408176 0.38219484
vn -0.14625963 -0.92408176 0.35310199
vn -0.27025256 -0.92408176 0.27025256
vn -0.35310199 -0.92408176 0.14625963
vn -0.38219484 -0.92408176 1.2423216e-16
vn -0.35310199 -0.92408176 -0.14625963
vn -0.27025256 -0.92408176 -0.27025256
vn -0.14625963 -0.92408176 -0.35310199
vn -3.5494904e-17 -0.92408176 -0.38219484
vn 0.14625963 -0.92408176 -0.35310199
vn 0.27025256 -0.92408176 -0.27025256
vn 0.35310199 -0.92408176 -0.14625963
vn -7.0801599e-18 1.00000000 -4.3365979e-17
vn -8.8501998e-18 -1.00000000 -6.2393909e-17
g sphere1_horizon
usemtl horizon
s 1
f 1/91/1 17/107/17 32/105/32 16/88/16
f 1/91/1 113/65/113 2/85/2
f 2/85/2 18/103/18 17/107/17 1/91/1
f 2/85/2 113/65/113 3/80/3
f 3/80/3 19/95/19 18/103/18 2/85/2
f 3/80/3 113/65/113 4/73/4
f 4/73/4 20/79/20 19/95/19 3/80/3
f 4/73/4 113/65/113 5/63/5
f 5/63/5 21/61/21 20/79/20 4/73/4
f 5/63/5 113/65/113 6/54/6
f 6/54/6 22/44/22 21/61/21 5/63/5
f 6/54/6 113/65/113 7/48/7
f 7/48/7 23/30/23 22/44/22 6/54/6
f 7/48/7 113/65/113 8/43/8
f 8/43/8 24/26/24 23/30/23 7/48/7
f 8/43/8 113/65/113 9/40/9
f 9/40/9 25/24/25 24/26/24 8/43/8
f 9/40/9 113/65/113 10/46/10
f 10/46/10 26/28/26 25/24/25 9/40/9
f 10/46/10 113/65/113 11/51/11
f 11/51/11 27/36/27 26/28/26 10/46/10
f 11/51/11 113/65/113 12/58/12
f 12/58/12 28/52/28 27/36/27 11/51/11
f 12/58/12 113/65/113 13/68/13
f 13/68/13 29/70/29 28/52/28 12/58/12
f 13/68/13 113/65/113 14/77/14
f 14/77/14 30/87/30 29/70/29 13/68/13
f 14/77/14 113/65/113 15/83/15
f 15/83/15 31/101/31 30/87/30 14/77/14
f 15/83/15 113/65/113 16/88/16
f 16/88/16 32/105/32 31/101/31 15/83/15
f 16/88/16 113/65/113 1/91/1
f 17/107/17 33/121/33 48/118/48 32/105/32
f 18/103/18 34/115/34 33/121/33 17/107/17
f 19/95/19 35/109/35 34/115/34 18/103/18
f 20/79/20 36/92/36 35/109/35 19/95/19
f 21/61/21 37/60/37 36/92/36 20/79/20
f 22/44/22 38/33/38 37/60/37 21/61/21
f 23/30/23 39/18/39 38/33/38 22/44/22
f 24/26/24 40/13/40 39/18/39 23/30/23
f 25/24/25 41/10/41 40/13/40 24/26/24
f 26/28/26 42/16/42 41/10/41 25/24/25
f 27/36/27 43/22/43 42/16/42 26/28/26
f 28/52/28 44/39/44 43/22/43 27/36/27
f 29/70/29 45/71/45 44/39/44 28/52/28
f 30/87/30 46/98/46 45/71/45 29/70/29
f 31/101/31 47/113/47 46/98/46 30/87/30
f 32/105/32 48/118/48 47/113/47 31/101/31
f 33/121/33 49/130/49 64/127/64 48/118/48
f 34/115/34 50/125/50 49/130/49 33/121/33
f 35/109/35 51/117/51 50/125/50 34/115/34
f 36/92/36 52/97/52 51/117/51 35/109/35
f 37/60/37 53/56/53 52/97/52 36/92/36
f 38/33/38 54/21/54 53/56/53 37/60/37
f 39/18/39 55/8/55 54/21/54 38/33/38
f 40/13/40 56/4/56 55/8/55 39/18/39
f 41/10/41 57/1/57 56/4/56 40/13/40
f 42/16/42 58/6/58 57/1/57 41/10/41
f 43/22/43 59/14/59 58/6/58 42/16/42
f 44/39/44 60/34/60 59/14/59 43/22/43
f 45/71/45 61/75/61 60/34/60 44/39/44
f 46/98/46 62/110/62 61/75/61 45/71/45
f 47/113/47 63/123/63 62/110/62 46/98/46
f 48/118/48 64/127/64 63/123/63 47/113/47
f 49/2/49 65/9/65 80/15/80 64/5/64
f 50/3/50 66/12/66 65/9/65 49/2/49
f 51/7/51 67/17/67 66/12/66 50/3/50
f 52/19/52 68/31/68 67/17/67 51/7/51
f 53/55/53 69/59/69 68/31/68 52/19/52
f 54/99/54 70/94/70 69/59/69 53/55/53
f 55/120/55 71/111/71 70/94/70 54/99/54
f 56/126/56 72/116/72 71/111/71 55/120/55
f 57/129/57 73/122/73 72/116/72 56/126/56
f 58/128/58 74/119/74 73/122/73 57/129/57
f 59/124/59 75/114/75 74/119/74 58/128/58
f 60/112/60 76/100/76 75/114/75 59/124/59
f 61/76/61 77/72/77 76/100/76 60/112/60
f 62/32/62 78/37/78 77/72/77 61/76/61
f 63/11/63 79/20/79 78/37/78 62/32/62
f 64/5/64 80/15/80 79/20/79 63/11/63
f 65/9/65 81/23/81 96/27/96 80/15/80
f 66/12/66 82/25/82 81/23/81 65/9/65
f 67/17/67 83/29/83 82/25/82 66/12/66
f 68/31/68 84/42/84 83/29/83 67/17/67
f 69/59/69 85/62/85 84/42/84 68/31/68
f 70/94/70 86/81/86 85/62/85 69/59/69
f 71/111/71 87/96/87 86/81/86 70/94/70
f 72/116/72 88/104/88 87/96/87 71/111/71
f 73/122/73 89/108/89 88/104/88 72/116/72
f 74/119/74 90/106/90 89/108/89 73/122/73
f 75/114/75 91/102/91 90/106/90 74/119/74
f 76/100/76 92/89/92 91/102/91 75/114/75
f 77/72/77 93/69/93 92/89/92 76/100/76
f 78/37/78 94/50/94 93/69/93 77/72/77
f 79/20/79 95/35/95 94/50/94 78/37/78
f 80/15/80 96/27/96 95/35/95 79/20/79
f 81/23/81 97/38/97 112/45/112 96/27/96
f 82/25/82 98/41/98 97/38/97 81/23/81
f 83/29/83 99/47/99 98/41/98 82/25/82
f 84/42/84 100/53/100 99/47/99 83/29/83
f 85/62/85 101/64/101 100/53/100 84/42/84
f 86/81/86 102/74/102 101/64/101 85/62/85
f 87/96/87 103/82/103 102/74/102 86/81/86
f 88/104/88 104/86/104 103/82/103 87/96/87
f 89/108/89 105/93/105 104/86/104 88/104/88
f 90/106/90 106/90/106 105/93/105 89/108/89
f 91/102/91 107/84/107 106/90/106 90/106/90
f 92/89/92 108/78/108 107/84/107 91/102/91
f 93/69/93 109/67/109 108/78/108 92/89/92
f 94/50/94 110/57/110 109/67/109 93/69/93
f 95/35/95 111/49/111 110/57/110 94/50/94
f 96/27/96 112/45/112 111/49/111 95/35/95
f 97/38/97 114/66/114 112/45/112
f 98/41/98 114/66/114 97/38/97
f 99/47/99 114/66/114 98/41/98
f 100/53/100 114/66/114 99/47/99
f 101/64/101 114/66/114 100/53/100
f 102/74/102 114/66/114 101/64/101
f 103/82/103 114/66/114 102/74/102
f 104/86/104 114/66/114 103/82/103
f 105/93/105 114/66/114 104/86/104
f 106/90/106 114/66/114 105/93/105
f 107/84/107 114/66/114 106/90/106
f 108/78/108 114/66/114 107/84/107
f 109/67/109 114/66/114 108/78/108
f 110/57/110 114/66/114 109/67/109
f 111/49/111 114/66/114 110/57/110
f 112/45/112 114/66/114 111/49/111
